<mxfile host="Electron" agent="Mozilla/5.0 (Windows NT 10.0; Win64; x64) AppleWebKit/537.36 (KHTML, like Gecko) draw.io/24.7.17 Chrome/128.0.6613.36 Electron/32.0.1 Safari/537.36" version="24.7.17">
  <diagram name="Страница — 1" id="mdvwVYyUBloAJ3XZXTJs">
    <mxGraphModel dx="1050" dy="629" grid="1" gridSize="10" guides="1" tooltips="1" connect="1" arrows="1" fold="1" page="1" pageScale="1" pageWidth="827" pageHeight="1169" math="0" shadow="0">
      <root>
        <mxCell id="0" />
        <mxCell id="1" parent="0" />
        <mxCell id="X5MZhDBrr2BDcaK7_onW-3" value="" style="edgeStyle=orthogonalEdgeStyle;rounded=0;orthogonalLoop=1;jettySize=auto;html=1;" edge="1" parent="1" source="X5MZhDBrr2BDcaK7_onW-1" target="X5MZhDBrr2BDcaK7_onW-2">
          <mxGeometry relative="1" as="geometry" />
        </mxCell>
        <mxCell id="X5MZhDBrr2BDcaK7_onW-1" value="Начало" style="ellipse;whiteSpace=wrap;html=1;fontFamily=Times New Roman;fontSize=14;" vertex="1" parent="1">
          <mxGeometry x="274" y="50" width="279" height="110" as="geometry" />
        </mxCell>
        <mxCell id="X5MZhDBrr2BDcaK7_onW-5" value="" style="edgeStyle=orthogonalEdgeStyle;rounded=0;orthogonalLoop=1;jettySize=auto;html=1;" edge="1" parent="1" source="X5MZhDBrr2BDcaK7_onW-2" target="X5MZhDBrr2BDcaK7_onW-4">
          <mxGeometry relative="1" as="geometry" />
        </mxCell>
        <mxCell id="X5MZhDBrr2BDcaK7_onW-2" value="&lt;div style=&quot;text-align: justify; font-size: 14px;&quot;&gt;&lt;div&gt;string str1 = &quot;Работа&quot;;&lt;/div&gt;&lt;div&gt;string dash = &quot; – &quot;;&lt;/div&gt;&lt;div&gt;string str2 = &quot;не волк&quot;;&lt;/div&gt;&lt;div&gt;&lt;br&gt;&lt;/div&gt;&lt;/div&gt;" style="shape=parallelogram;perimeter=parallelogramPerimeter;whiteSpace=wrap;html=1;fixedSize=1;align=center;labelPosition=center;verticalLabelPosition=middle;verticalAlign=bottom;fontFamily=Times New Roman;fontSize=14;" vertex="1" parent="1">
          <mxGeometry x="275" y="200" width="278" height="90" as="geometry" />
        </mxCell>
        <mxCell id="X5MZhDBrr2BDcaK7_onW-8" value="" style="edgeStyle=orthogonalEdgeStyle;rounded=0;orthogonalLoop=1;jettySize=auto;html=1;exitX=0.499;exitY=0.87;exitDx=0;exitDy=0;exitPerimeter=0;" edge="1" parent="1" source="X5MZhDBrr2BDcaK7_onW-4" target="X5MZhDBrr2BDcaK7_onW-6">
          <mxGeometry relative="1" as="geometry" />
        </mxCell>
        <mxCell id="X5MZhDBrr2BDcaK7_onW-4" value="&lt;div style=&quot;text-align: justify; font-size: 14px;&quot;&gt;&lt;div&gt;Console.WriteLine(str1 + dash + str2 + &quot;, &quot; +&lt;/div&gt;&lt;div&gt;&quot;в лес не убежит, потому её, &quot; +&lt;/div&gt;&lt;div&gt;&amp;nbsp;&quot;окаянную, делать и надо.&quot;);&lt;/div&gt;&lt;div&gt;&lt;br&gt;&lt;/div&gt;&lt;/div&gt;" style="strokeWidth=2;html=1;shape=mxgraph.flowchart.document2;whiteSpace=wrap;size=0.25;fontFamily=Times New Roman;fontSize=14;spacing=2;" vertex="1" parent="1">
          <mxGeometry x="275" y="330" width="277" height="120" as="geometry" />
        </mxCell>
        <mxCell id="X5MZhDBrr2BDcaK7_onW-6" value="Конец" style="ellipse;whiteSpace=wrap;html=1;fontFamily=Times New Roman;fontSize=14;" vertex="1" parent="1">
          <mxGeometry x="274" y="490" width="279" height="110" as="geometry" />
        </mxCell>
        <mxCell id="X5MZhDBrr2BDcaK7_onW-9" value="1." style="text;html=1;align=center;verticalAlign=middle;resizable=0;points=[];autosize=1;strokeColor=none;fillColor=none;fontFamily=Times New Roman;fontSize=14;" vertex="1" parent="1">
          <mxGeometry x="275" y="50" width="30" height="30" as="geometry" />
        </mxCell>
        <mxCell id="X5MZhDBrr2BDcaK7_onW-10" value="2." style="text;html=1;align=center;verticalAlign=middle;resizable=0;points=[];autosize=1;strokeColor=none;fillColor=none;fontFamily=Times New Roman;fontSize=14;" vertex="1" parent="1">
          <mxGeometry x="275" y="170" width="30" height="30" as="geometry" />
        </mxCell>
        <mxCell id="X5MZhDBrr2BDcaK7_onW-11" value="3." style="text;html=1;align=center;verticalAlign=middle;resizable=0;points=[];autosize=1;strokeColor=none;fillColor=none;fontFamily=Times New Roman;fontSize=14;" vertex="1" parent="1">
          <mxGeometry x="275" y="300" width="30" height="30" as="geometry" />
        </mxCell>
        <mxCell id="X5MZhDBrr2BDcaK7_onW-12" value="4." style="text;html=1;align=center;verticalAlign=middle;resizable=0;points=[];autosize=1;strokeColor=none;fillColor=none;fontFamily=Times New Roman;fontSize=14;" vertex="1" parent="1">
          <mxGeometry x="275" y="490" width="30" height="30" as="geometry" />
        </mxCell>
      </root>
    </mxGraphModel>
  </diagram>
</mxfile>
